<?xml version="1.0" encoding="UTF-8" standalone="no"?>
<!-- Created with Inkscape (http://www.inkscape.org/) -->

<svg
   xmlns:dc="http://purl.org/dc/elements/1.1/"
   xmlns:cc="http://creativecommons.org/ns#"
   xmlns:rdf="http://www.w3.org/1999/02/22-rdf-syntax-ns#"
   xmlns:svg="http://www.w3.org/2000/svg"
   xmlns="http://www.w3.org/2000/svg"
   xmlns:sodipodi="http://sodipodi.sourceforge.net/DTD/sodipodi-0.dtd"
   xmlns:inkscape="http://www.inkscape.org/namespaces/inkscape"
   width="96"
   height="96"
   id="svg2"
   version="1.1"
   inkscape:version="0.48.3.1 r9886"
   sodipodi:docname="icon.svg"
   inkscape:export-filename="/home/cananian/Projects/OLPC/Narrative/sechs/res/drawable-xhdpi/ic_launcher.png"
   inkscape:export-xdpi="90"
   inkscape:export-ydpi="90">
  <defs
     id="defs4">
    <inkscape:perspective
       sodipodi:type="inkscape:persp3d"
       inkscape:vp_x="0 : 526.18109 : 1"
       inkscape:vp_y="0 : 1000 : 0"
       inkscape:vp_z="744.09448 : 526.18109 : 1"
       inkscape:persp3d-origin="372.04724 : 350.78739 : 1"
       id="perspective3610" />
    <inkscape:perspective
       sodipodi:type="inkscape:persp3d"
       inkscape:vp_x="0 : 526.18109 : 1"
       inkscape:vp_y="0 : 1000 : 0"
       inkscape:vp_z="744.09448 : 526.18109 : 1"
       inkscape:persp3d-origin="372.04724 : 350.78739 : 1"
       id="perspective3558" />
    <inkscape:perspective
       sodipodi:type="inkscape:persp3d"
       inkscape:vp_x="0 : 526.18109 : 1"
       inkscape:vp_y="0 : 1000 : 0"
       inkscape:vp_z="744.09448 : 526.18109 : 1"
       inkscape:persp3d-origin="372.04724 : 350.78739 : 1"
       id="perspective3545" />
    <inkscape:perspective
       sodipodi:type="inkscape:persp3d"
       inkscape:vp_x="0 : 526.18109 : 1"
       inkscape:vp_y="0 : 1000 : 0"
       inkscape:vp_z="744.09448 : 526.18109 : 1"
       inkscape:persp3d-origin="372.04724 : 350.78739 : 1"
       id="perspective3532" />
    <inkscape:perspective
       sodipodi:type="inkscape:persp3d"
       inkscape:vp_x="0 : 526.18109 : 1"
       inkscape:vp_y="0 : 1000 : 0"
       inkscape:vp_z="744.09448 : 526.18109 : 1"
       inkscape:persp3d-origin="372.04724 : 350.78739 : 1"
       id="perspective3519" />
    <inkscape:perspective
       id="perspective3510"
       inkscape:persp3d-origin="372.04724 : 350.78739 : 1"
       inkscape:vp_z="744.09448 : 526.18109 : 1"
       inkscape:vp_y="0 : 1000 : 0"
       inkscape:vp_x="0 : 526.18109 : 1"
       sodipodi:type="inkscape:persp3d" />
  </defs>
  <sodipodi:namedview
     id="base"
     pagecolor="#ffffff"
     bordercolor="#666666"
     borderopacity="1.0"
     inkscape:pageopacity="0.0"
     inkscape:pageshadow="2"
     inkscape:zoom="5.3371935"
     inkscape:cx="48.778378"
     inkscape:cy="49.030107"
     inkscape:document-units="px"
     inkscape:current-layer="layer1"
     showgrid="false"
     borderlayer="true"
     inkscape:window-width="1440"
     inkscape:window-height="847"
     inkscape:window-x="0"
     inkscape:window-y="27"
     inkscape:window-maximized="1" />
  <metadata
     id="metadata7">
    <rdf:RDF>
      <cc:Work
         rdf:about="">
        <dc:format>image/svg+xml</dc:format>
        <dc:type
           rdf:resource="http://purl.org/dc/dcmitype/StillImage" />
        <dc:title></dc:title>
      </cc:Work>
    </rdf:RDF>
  </metadata>
  <g
     inkscape:label="Background"
     inkscape:groupmode="layer"
     id="layer1"
     transform="translate(0,-956.36218)">
    <rect
       style="opacity:1;fill:#6ebd46;fill-opacity:1;stroke:none"
       id="rect2985"
       width="96"
       height="96"
       x="0"
       y="0.25945947"
       transform="translate(0,956.36218)"
       rx="20"
       ry="20" />
    <text
       xml:space="preserve"
       style="font-size:96px;font-style:normal;font-variant:normal;font-weight:normal;font-stretch:normal;text-align:center;line-height:125%;letter-spacing:0px;word-spacing:0px;writing-mode:lr-tb;text-anchor:middle;fill:#ffffff;fill-opacity:1;stroke:none;font-family:Squealer;-inkscape-font-specification:Squealer"
       x="47.587502"
       y="1047.8982"
       id="text3855"
       sodipodi:linespacing="125%"><tspan
         sodipodi:role="line"
         id="tspan3859"
         x="47.587502"
         y="1047.8982">6</tspan></text>
  </g>
  <g
     inkscape:groupmode="layer"
     id="layer2"
     inkscape:label="Inspiration"
     sodipodi:insensitive="true">
    <g
       transform="matrix(0.14398327,0,0,0.14398327,-4.5502587,-77.918323)"
       id="layer1-7"
       inkscape:label="Layer 1">
      <g
         transform="matrix(0.8768512,0,0,0.8768512,87.332081,46.572716)"
         id="g4218">
        <path
           style="fill:#e10076"
           d="m 581.50658,506.03007 c -3.57061,-1.43825 -5.64903,-5.50332 -4.96595,-9.71264 0.48295,-2.97604 2.52414,-5.61648 10.6277,-13.74771 5.51647,-5.53531 10.02995,-10.70585 10.02995,-11.4901 0,-0.78424 -4.46651,-5.96479 -9.92558,-11.51233 -5.5318,-5.62145 -10.22785,-11.29077 -10.60841,-12.80703 -1.63222,-6.50328 2.23312,-11.72059 8.68343,-11.72059 3.92594,0 4.72338,0.56557 14.80477,10.5 5.86043,5.775 11.28103,10.5 12.04579,10.5 0.76476,0 6.18536,-4.725 12.04579,-10.5 10.00588,-9.86002 10.90282,-10.5 14.71587,-10.5 3.3066,0 4.54125,0.57128 6.64945,3.07672 4.86387,5.78039 3.44166,9.11628 -9.60256,22.52349 l -10.19459,10.47829 10.08365,10.21075 c 11.41102,11.55486 12.73638,13.58387 11.87437,18.17876 -1.06437,5.67359 -6.53164,8.63842 -12.05627,6.53796 -1.59842,-0.60772 -7.5353,-5.66019 -13.19305,-11.22772 l -10.28683,-10.12278 -10.45695,10.17384 c -12.13871,11.81005 -14.89364,13.32694 -20.27058,11.16109 z m 21.68153,-71.2404 c -4.97584,-3.38653 -7.21555,-7.04371 -7.75558,-12.66393 -0.6076,-6.32338 0.88827,-10.0606 5.80473,-14.50232 11.69838,-10.56878 30.47475,0.20338 27.54796,15.8045 -0.87969,4.68914 -4.42899,9.55889 -8.57134,11.76014 -4.98185,2.64736 -12.82012,2.46395 -17.02577,-0.39839 z"
           id="path3697"
           inkscape:connector-curvature="0" />
        <path
           style="fill:#6ebd46"
           d="m 194.60249,493.09096 c -10.62327,-6.62257 -19.89934,-12.81007 -20.61348,-13.75 -1.00453,-1.32215 -1.30563,-9.46143 -1.33024,-35.95897 -0.0306,-32.93909 0.0447,-34.32655 1.9682,-36.25 1.93476,-1.93477 3.33333,-2 42.87755,-2 36.78526,0 41.01496,0.16537 42.25001,1.65186 1.0715,1.28965 1.48208,8.35748 1.87244,32.23312 l 0.5,30.58125 15.89379,10.01689 c 17.75921,11.19254 20.01848,13.69315 17.61472,19.49634 -2.4551,5.92713 -3.14264,6.02054 -44.31357,6.02054 l -37.40439,0 -19.31503,-12.04103 z m 52.52448,-52.45897 0,-22 -28.8788,-0.26555 c -20.47249,-0.18825 -29.27795,0.0657 -30.25,0.87245 -1.0771,0.8939 -1.3712,5.38392 -1.3712,20.93376 0,10.88767 0.27569,20.51419 0.61263,21.39226 0.54517,1.42068 3.87644,1.56734 30.25,1.33179 l 29.63737,-0.26471 0,-22 z"
           id="path3693"
           sodipodi:nodetypes="cssssscccsccccccsssccc"
           inkscape:connector-curvature="0" />
        <path
           style="fill:#0d96d0"
           d="m 424.53106,496.73812 c -2.1951,-1.88814 -2.78303,-3.2527 -2.78303,-6.45919 0,-3.79452 0.66463,-4.75086 9.97727,-14.35614 l 9.97727,-10.2908 -31.5467,-0.5 c -28.1899,-0.4468 -31.8391,-0.69178 -34.29464,-2.3023 -5.57437,-3.65609 -5.73576,-11.05631 -0.32922,-15.09593 2.68331,-2.0049 4.27309,-2.12482 34.49176,-2.60177 l 31.6788,-0.5 -10.25,-10.64583 c -11.503,-11.94721 -12.36889,-14.18256 -7.66111,-19.77745 2.13297,-2.53488 3.32737,-3.07672 6.78216,-3.07672 4.1229,0 4.53254,0.34075 24.41111,20.30565 18.31816,18.39772 20.21784,20.62406 20.21784,23.69435 0,3.07029 -1.89968,5.29663 -20.21784,23.69435 -19.07488,19.15772 -20.42851,20.30565 -23.94424,20.30565 -2.48905,0 -4.65049,-0.79488 -6.50943,-2.39387 z"
           id="path3695"
           sodipodi:nodetypes="cscccsscccssssssc"
           inkscape:connector-curvature="0" />
        <path
           style="fill:#f69226"
           d="m 19.175603,505.73235 c -4.505999,-1.99635 -6.704959,-5.73012 -5.900412,-10.01873 1.065648,-5.68039 4.46529,-7.54774 13.741178,-7.54774 5.457423,0 8.046927,-0.39194 8.383445,-1.26889 0.2678,-0.69789 0.36618,-12.24695 0.21861,-25.66458 l -0.2683,-24.39569 -4.810818,4.16458 c -6.087485,5.26975 -10.377186,5.63042 -14.766103,1.2415 -3.245466,-3.24546 -3.718455,-6.65981 -1.506734,-10.87658 2.372216,-4.52277 25.799775,-26.96549 28.982715,-27.76436 3.83066,-0.96144 7.42956,0.4371 9.99879,3.88553 2.02929,2.72372 2.11948,4.16201 2.60215,41.5 l 0.5,38.67849 8,0.50402 c 9.1539,0.57671 11.72198,1.70346 13.46312,5.90695 1.58872,3.8355 0.33603,7.77591 -3.347,10.52818 -2.58822,1.93415 -4.2751,2.07539 -27.43695,2.29731 -19.439337,0.18625 -25.353176,-0.0622 -27.853691,-1.16999 z"
           id="path3691"
           sodipodi:nodetypes="cssscccsssscccsssc"
           inkscape:connector-curvature="0" />
        <path
           style="fill:none;stroke:#000000;stroke-width:5;stroke-linecap:butt;stroke-linejoin:miter;stroke-miterlimit:4;stroke-opacity:0.4;stroke-dasharray:none"
           d="m -48.725708,380.68238 c 0,148.35481 0,148.89923 0,148.89923"
           id="path3699"
           inkscape:connector-curvature="0" />
        <path
           style="fill:none;stroke:#000000;stroke-width:5;stroke-linecap:butt;stroke-linejoin:miter;stroke-miterlimit:4;stroke-opacity:0.4;stroke-dasharray:none"
           d="m 706.65887,380.68238 c 0,148.35481 0,148.89923 0,148.89923"
           id="path4210"
           inkscape:connector-curvature="0" />
        <path
           style="fill:none;stroke:#000000;stroke-width:5;stroke-linecap:butt;stroke-linejoin:miter;stroke-miterlimit:4;stroke-opacity:0.4;stroke-dasharray:none"
           d="m 517.81274,380.68238 c 0,148.35481 0,148.89923 0,148.89923"
           id="path4212"
           inkscape:connector-curvature="0" />
        <path
           style="fill:none;stroke:#000000;stroke-width:5;stroke-linecap:butt;stroke-linejoin:miter;stroke-miterlimit:4;stroke-opacity:0.4;stroke-dasharray:none"
           d="m 328.96659,380.68238 c 0,148.35481 0,148.89923 0,148.89923"
           id="path4214"
           inkscape:connector-curvature="0" />
        <path
           style="fill:none;stroke:#000000;stroke-width:5;stroke-linecap:butt;stroke-linejoin:miter;stroke-miterlimit:4;stroke-opacity:0.4;stroke-dasharray:none"
           d="m 140.12044,380.68238 c 0,148.35481 0,148.89923 0,148.89923"
           id="path4216"
           inkscape:connector-curvature="0" />
      </g>
    </g>
  </g>
</svg>
